<?xml version="1.0" encoding="UTF-8" standalone="no"?>
<!-- Created with Inkscape (http://www.inkscape.org/) -->

<svg
   width="71.303642mm"
   height="48.736771mm"
   viewBox="0 0 71.303642 48.736771"
   version="1.1"
   id="svg1"
   xml:space="preserve"
   xmlns="http://www.w3.org/2000/svg"
   xmlns:svg="http://www.w3.org/2000/svg"><defs
     id="defs1" /><g
     id="layer1"
     transform="translate(-88.10625,-136.85713)"><path
       fill="#fd4f00"
       d="m 114.88244,170.84863 -0.5604,-0.1019 c -3.9802,-0.74033 -6.49532,-3.14738 -7.68576,-6.93371 -0.74479,-2.36026 0.60553,-4.09717 3.08054,-4.21137 2.02603,-0.0947 3.41422,1.07067 4.6403,2.42599 1.58151,1.74639 3.03042,3.61308 4.5835,5.38677 2.23603,2.55299 4.87092,4.19689 8.47566,3.68939 3.2315,-0.45456 6.04967,-1.75139 8.49961,-3.88658 0.36821,-0.32087 0.77264,-0.60108 1.16147,-0.89967 l -0.24511,-0.28855 c -2.05778,0.64062 -4.15566,0.85398 -6.30033,0.74646 -3.24376,-0.16275 -6.33545,-0.84116 -9.10126,-2.62153 -2.52402,-1.62549 -4.38572,-3.80359 -5.26976,-6.71257 -0.71473,-2.35079 0.74645,-3.99466 3.18359,-3.65486 0.96203,0.13474 1.772,0.56821 2.50063,1.18208 0.5916,0.50135 1.16036,1.03057 1.76421,1.51631 2.84323,2.28506 6.81564,2.41208 10.42258,-0.0691 -5.93156,-0.0267 -9.96747,-3.29054 -13.51203,-7.42559 -1.38707,-1.61827 -2.74128,-3.26492 -4.15789,-4.85869 -2.74019,-3.08221 -5.7795,-5.79732 -9.94018,-6.72482 -5.3188,-1.18207 -10.451548,-0.40776 -15.378184,1.84721 -0.982098,0.44955 -1.925198,0.97374 -2.937376,1.81601 0.501354,0 0.774313,0.006 1.047273,0 2.484485,-0.0651 4.346179,1.03838 5.688693,3.07053 0.977083,1.479 1.437214,3.15127 1.788161,4.87149 0.52085,2.55356 0.250678,5.15559 0.552046,7.7214 0.772641,6.59391 4.142847,11.19523 10.417577,13.55159 2.30177,0.86455 4.66147,1.15199 7.28187,0.56261 z M 99.022391,140.76741 c -0.991009,0.24957 -1.783147,-0.15033 -2.59924,-0.97652 1.398219,-0.34815 2.63155,-0.48353 3.956789,-0.53644 -0.10861,0.8612 -0.616659,1.32578 -1.356435,1.51296 z m 32.494409,38.50731 c -0.0863,-0.63561 -0.62948,-0.91525 -1.05619,-1.24671 -1.88509,-1.4684 -4.09161,-1.9887 -6.43015,-2.03104 -1.39598,-0.0261 -2.77749,-0.12969 -4.09271,-0.61943 -0.60385,-0.22284 -1.28012,-0.5125 -1.2634,-1.29128 0.0147,-0.79214 0.70355,-1.01551 1.33025,-1.20268 0.5125,-0.15159 1.0417,-0.25069 1.62494,-0.38716 -1.48234,-0.95035 -2.93068,-1.08124 -4.86089,-0.30472 -3.03933,1.21996 -6.03464,1.07625 -9.06337,-0.0169 -1.71017,-0.6184 -3.22816,-1.58769 -4.80743,-2.44555 l -0.0435,0.0307 a 3.005337,3.005337 0 0 0 0.0401,-0.0301 c -0.039,-0.11874 -0.10862,-0.1219 -0.2,-0.0545 l 0.12368,0.10864 c 1.30964,2.14745 3.08054,3.87545 5.08094,5.35222 3.85151,2.84268 8.05787,4.53893 12.9806,3.78689 a 67.739013,67.739013 0 0 1 4.79518,-0.56151 c 2.01097,-0.16275 3.92558,0.40443 5.84187,0.91301 z m -9.28062,-30.81096 c -0.10696,-0.0769 -0.20949,-0.26962 -0.42726,-0.0701 1.77201,2.39647 4.04648,4.16124 6.7861,5.27311 4.42082,1.7943 8.90793,2.1018 13.49754,0.51808 3.56352,-1.22887 6.12489,-0.0284 7.4557,3.43148 0.19265,-4.01584 -2.17031,-6.94208 -5.9327,-7.51474 -2.11681,-0.32309 -4.07209,0.37881 -6.05355,0.95425 -5.51768,1.59986 -10.64653,0.81052 -15.32638,-2.59199 z m 27.50037,15.66227 c 0.7186,0.0596 1.43832,0.12486 2.15692,0.18781 -1.62437,-1.42607 -3.60416,-1.54027 -5.60792,-1.42607 -3.04877,0.17265 -5.24582,1.93299 -7.24955,4.03311 -1.76588,1.85279 -3.36131,3.93006 -5.99397,4.67486 0.0446,0.0792 0.0558,0.11916 0.068,0.11916 0.35428,0.004 0.70858,0.0213 1.06231,0.004 3.82589,-0.17264 7.43006,-0.97988 10.29613,-3.75681 0.90356,-0.87347 1.71017,-1.84443 2.58253,-2.75189 0.72753,-0.75759 1.60823,-1.17706 2.68559,-1.08625 z m -8.88734,-4.74168 c -2.85493,0.25012 -5.33441,1.43053 -7.66347,2.98806 -1.79373,1.19769 -3.71,1.76476 -5.86528,1.39099 -0.37879,-0.067 -0.76094,-0.1158 -1.14142,-0.17265 l -0.0126,0.15812 c 0.13707,0.0714 0.26908,0.15327 0.41111,0.21056 0.35931,0.14212 0.71304,0.31308 1.08627,0.40109 4.14564,0.98599 8.11524,0.4813 11.69324,-1.8305 2.25554,-1.45727 4.59018,-1.73356 7.1209,-1.35701 0.25625,0.0389 0.51081,0.0842 0.76761,0.10927 0.23733,0.0223 0.48577,0.25794 0.8072,0.002 -2.21208,-1.59821 -4.59576,-2.12795 -7.20334,-1.90067 z m -10.20254,-9.69117 c 1.49737,0.0518 2.98808,-0.14486 4.55508,-1.07512 -0.45957,0.04 -0.65287,0.04 -0.84004,0.0768 -2.15861,0.43003 -4.09497,-0.0406 -5.82129,-1.40436 -0.63225,-0.50023 -1.27567,-0.98877 -1.9174,-1.47954 -2.54186,-1.94303 -5.45751,-2.59367 -8.64556,-2.53796 0.0507,0.15601 0.0558,0.26404 0.11032,0.31975 3.46993,3.5078 7.4841,5.92544 12.55891,6.09981 z m 25.10667,18.00361 c -2.14635,-2.12964 -5.02802,-2.40315 -7.69409,-0.54537 1.76476,0.0785 3.08945,0.64173 4.16345,1.75474 a 13.199529,13.199529 0 0 0 1.20047,1.12249 c 1.62494,1.3102 4.37736,1.37316 5.98672,0.15706 -1.88955,-0.73698 -1.88955,-0.73698 -3.65598,-2.48894 z m -21.38218,16.30624 c -1.88619,-3.51281 -5.05754,-4.30495 -8.72188,-4.06932 a 9.8153913,9.8153913 0 0 1 3.02261,1.41161 c 0.85341,0.59493 1.57091,1.33024 2.27838,2.08617 1.40044,1.49572 3.58745,2.41208 5.0375,2.10235 -0.6657,-0.41834 -1.2573,-0.86177 -1.61661,-1.53081 z m 17.5563,-19.61685 c 0,-0.0234 5.6e-4,-0.0451 0.002,-0.0691 l -0.006,0.006 0.006,-0.006 -0.0362,-0.004 0.0213,0.0169 0.0126,0.0541 z m -20.30706,14.97153 a 7.7269746,7.7269746 0 0 0 -0.0735,-0.0423 0.12923784,0.12923784 0 0 0 0.0147,0.044 c 0.006,0.008 0.0389,0 0.059,-0.002 z m -0.0735,-0.0423 -0.008,-0.0339 -0.008,0.0105 0.008,-0.0105 -0.0223,-0.006 0.006,0.0257 0.024,0.0147 z"
       id="path1"
       style="stroke-width:0.557059" /></g></svg>
